<mxfile host="65bd71144e">
    <diagram id="e8amhwlEYfxseIw8BJHO" name="Page-1">
        <mxGraphModel dx="1128" dy="1173" grid="1" gridSize="10" guides="1" tooltips="1" connect="1" arrows="1" fold="1" page="1" pageScale="1" pageWidth="827" pageHeight="1169" math="0" shadow="0">
            <root>
                <mxCell id="0"/>
                <mxCell id="1" parent="0"/>
                <mxCell id="10" style="edgeStyle=none;html=1;entryX=0;entryY=0.25;entryDx=0;entryDy=0;fontSize=18;" edge="1" parent="1" source="2" target="5">
                    <mxGeometry relative="1" as="geometry"/>
                </mxCell>
                <mxCell id="2" value="&lt;font style=&quot;&quot;&gt;&lt;font style=&quot;font-size: 24px;&quot;&gt;Web&lt;br&gt;&lt;/font&gt;&lt;font style=&quot;font-size: 18px;&quot;&gt;Nextjs&lt;/font&gt;&lt;br&gt;&lt;/font&gt;" style="rounded=0;whiteSpace=wrap;html=1;" vertex="1" parent="1">
                    <mxGeometry x="120" y="410" width="220" height="90" as="geometry"/>
                </mxCell>
                <mxCell id="4" value="&lt;font style=&quot;&quot;&gt;&lt;span style=&quot;font-size: 24px;&quot;&gt;Gateway&lt;br&gt;&lt;/span&gt;&lt;span style=&quot;font-size: 18px;&quot;&gt;federation graphql node&lt;/span&gt;&lt;br&gt;&lt;/font&gt;" style="rounded=0;whiteSpace=wrap;html=1;" vertex="1" parent="1">
                    <mxGeometry x="430" y="170" width="220" height="90" as="geometry"/>
                </mxCell>
                <mxCell id="6" style="edgeStyle=none;html=1;fontSize=18;" edge="1" parent="1">
                    <mxGeometry relative="1" as="geometry">
                        <mxPoint x="910.3333333333335" y="120" as="targetPoint"/>
                        <mxPoint x="910" y="130" as="sourcePoint"/>
                    </mxGeometry>
                </mxCell>
                <mxCell id="5" value="&lt;span style=&quot;font-size: 24px; background-color: initial;&quot;&gt;internationalization-api&lt;br&gt;&lt;ol&gt;&lt;li&gt;&lt;span style=&quot;font-size: 24px; background-color: initial;&quot;&gt;node&lt;/span&gt;&lt;/li&gt;&lt;li&gt;&lt;span style=&quot;font-size: 24px; background-color: initial;&quot;&gt;graphql&lt;/span&gt;&lt;/li&gt;&lt;li&gt;&lt;span style=&quot;font-size: 24px; background-color: initial;&quot;&gt;redis&lt;/span&gt;&lt;/li&gt;&lt;li&gt;&lt;span style=&quot;font-size: 24px; background-color: initial;&quot;&gt;mongo&lt;/span&gt;&lt;/li&gt;&lt;/ol&gt;&lt;/span&gt;" style="rounded=0;whiteSpace=wrap;html=1;align=left;strokeWidth=2;perimeterSpacing=3;" vertex="1" parent="1">
                    <mxGeometry x="720" y="390" width="277" height="270" as="geometry"/>
                </mxCell>
                <mxCell id="11" style="edgeStyle=none;html=1;entryX=0.001;entryY=0.83;entryDx=0;entryDy=0;entryPerimeter=0;fontSize=18;" edge="1" parent="1" source="8" target="5">
                    <mxGeometry relative="1" as="geometry"/>
                </mxCell>
                <mxCell id="8" value="&lt;font style=&quot;&quot;&gt;&lt;span style=&quot;font-size: 24px;&quot;&gt;CMS SwiftUI&lt;/span&gt;&lt;br&gt;&lt;/font&gt;" style="rounded=0;whiteSpace=wrap;html=1;" vertex="1" parent="1">
                    <mxGeometry x="120" y="570" width="220" height="90" as="geometry"/>
                </mxCell>
            </root>
        </mxGraphModel>
    </diagram>
</mxfile>